<?xml version="1.0" encoding="UTF-8"?>
<svg id="Layer_1" xmlns="http://www.w3.org/2000/svg" version="1.1" viewBox="0 0 538.63 549.38">
  <!-- Generator: Adobe Illustrator 29.5.1, SVG Export Plug-In . SVG Version: 2.1.0 Build 141)  -->
  <defs>
    <style>
      .st0 {
        fill: #fff;
      }
    </style>
  </defs>
  <path class="st0" d="M415.76,549.38H122.87c-67.75,0-122.87-55.12-122.87-122.87V122.87C0,55.12,55.11,0,122.87,0h292.89c67.75,0,122.87,55.12,122.87,122.87v303.64c0,67.75-55.11,122.87-122.87,122.87ZM122.87,22.81c-55.17,0-100.06,44.89-100.06,100.06v303.64c0,55.17,44.88,100.06,100.06,100.06h292.89c55.17,0,100.06-44.89,100.06-100.06V122.87c0-55.17-44.88-100.06-100.06-100.06,0,0-292.89,0-292.89,0Z"/>
  <path class="st0" d="M377.65,259.54c-5.83-3.35-12.06-6.34-18.52-8.87-9.28-45.48-42.95-77.12-82.28-77.12-23.33,0-45.04,11.01-61.11,30.98l-1.54,1.92,26.42,21.25,1.54-1.91c9.51-11.82,21.84-18.33,34.7-18.33,18.1,0,35.06,13.17,44.08,33.89-5.14-.55-10.28-.83-15.36-.83-16.31,0-41.58,3.32-58.35,9.66-30.1,11.38-47.86,35.99-46.35,64.23,1.49,27.88,21.76,51.63,50.42,59.09,5.95,1.55,12.08,2.34,18.23,2.34,40.99,0,84.88-29.83,91.25-86.88,13.96,8.04,23.38,20.8,26.54,35.9,3.25,15.52-.39,31.43-10.26,44.8-24.93,33.78-61.45,53.16-100.19,53.16-72.01,0-130.59-66.44-130.59-148.11s58.58-148.11,130.59-148.11c50.2,0,95.15,31.81,117.32,83.01l.97,2.26,31.11-13.46-.98-2.26c-27.19-62.84-85.46-103.45-148.43-103.45-90.7,0-164.49,81.65-164.49,182.01s73.79,182.01,164.49,182.01c49.62,0,96.08-24.4,127.47-66.93,15.45-20.94,21.35-47.14,16.16-71.88-5.17-24.7-20.38-45.43-42.84-58.36h0ZM305.58,274.42c7.33,0,14.74.74,22.05,2.2-.84,42.88-29.64,65.3-58.1,65.3-3.26,0-6.52-.42-9.69-1.24-14.54-3.78-24.4-14.81-25.11-28.09-.72-13.36,8.21-24.55,24.49-30.71,11.07-4.19,31.43-7.46,46.36-7.46h0Z"/>
</svg>